<mxfile host="app.diagrams.net" agent="Mozilla/5.0 (Windows NT 10.0; Win64; x64) AppleWebKit/537.36 (KHTML, like Gecko) Chrome/132.0.0.0 Safari/537.36 OPR/117.0.0.0" version="26.2.14">
  <diagram name="Página-1" id="lKEfuA6IKY5HmcUoQjAZ">
    <mxGraphModel dx="2379" dy="1354" grid="1" gridSize="10" guides="1" tooltips="1" connect="1" arrows="1" fold="1" page="1" pageScale="1" pageWidth="827" pageHeight="1169" math="0" shadow="0">
      <root>
        <mxCell id="0" />
        <mxCell id="1" parent="0" />
        <mxCell id="CCGscqTeK3ZTNfMnBpyx-22" value="" style="whiteSpace=wrap;html=1;aspect=fixed;" parent="1" vertex="1">
          <mxGeometry x="320" y="10" width="1510" height="1510" as="geometry" />
        </mxCell>
        <mxCell id="bWWshmXrRq2cFkP4rkLB-3" value="Aluno" style="shape=umlActor;verticalLabelPosition=bottom;verticalAlign=top;html=1;outlineConnect=0;" parent="1" vertex="1">
          <mxGeometry x="240" y="275" width="30" height="60" as="geometry" />
        </mxCell>
        <mxCell id="bWWshmXrRq2cFkP4rkLB-7" value="Administrador" style="shape=umlActor;verticalLabelPosition=bottom;verticalAlign=top;html=1;outlineConnect=0;" parent="1" vertex="1">
          <mxGeometry x="240" y="680" width="30" height="60" as="geometry" />
        </mxCell>
        <mxCell id="bWWshmXrRq2cFkP4rkLB-8" value="Coordenador" style="shape=umlActor;verticalLabelPosition=bottom;verticalAlign=top;html=1;outlineConnect=0;" parent="1" vertex="1">
          <mxGeometry x="240" y="990" width="30" height="60" as="geometry" />
        </mxCell>
        <mxCell id="bWWshmXrRq2cFkP4rkLB-11" value="Avaliador" style="shape=umlActor;verticalLabelPosition=bottom;verticalAlign=top;html=1;outlineConnect=0;" parent="1" vertex="1">
          <mxGeometry x="240" y="40" width="30" height="60" as="geometry" />
        </mxCell>
        <mxCell id="bWWshmXrRq2cFkP4rkLB-18" value="&lt;span style=&quot;background-color: transparent; color: light-dark(rgb(0, 0, 0), rgb(255, 255, 255));&quot;&gt;UC20 - Listar&lt;/span&gt;&lt;div&gt;&lt;span style=&quot;background-color: transparent; color: light-dark(rgb(0, 0, 0), rgb(255, 255, 255));&quot;&gt;&amp;nbsp;curso&lt;/span&gt;&lt;/div&gt;" style="ellipse;whiteSpace=wrap;html=1;" parent="1" vertex="1">
          <mxGeometry x="559.5" y="630" width="106.25" height="60" as="geometry" />
        </mxCell>
        <mxCell id="bWWshmXrRq2cFkP4rkLB-19" value="&lt;span style=&quot;background-color: transparent; color: light-dark(rgb(0, 0, 0), rgb(255, 255, 255));&quot;&gt;UC16 - Visualizar coordenador&lt;/span&gt;" style="ellipse;whiteSpace=wrap;html=1;" parent="1" vertex="1">
          <mxGeometry x="630" y="760" width="100" height="60" as="geometry" />
        </mxCell>
        <mxCell id="bWWshmXrRq2cFkP4rkLB-22" value="UC24 - Listar categorias" style="ellipse;whiteSpace=wrap;html=1;" parent="1" vertex="1">
          <mxGeometry x="446.25" y="1090" width="90" height="60" as="geometry" />
        </mxCell>
        <mxCell id="bWWshmXrRq2cFkP4rkLB-29" value="UC32 - Listar avaliadores" style="ellipse;whiteSpace=wrap;html=1;" parent="1" vertex="1">
          <mxGeometry x="1110" y="1120" width="90" height="60" as="geometry" />
        </mxCell>
        <mxCell id="bWWshmXrRq2cFkP4rkLB-31" value="UC40&lt;span style=&quot;background-color: transparent; color: light-dark(rgb(0, 0, 0), rgb(255, 255, 255));&quot;&gt;&amp;nbsp;- Indicar período de submissão de atividades&lt;/span&gt;" style="ellipse;whiteSpace=wrap;html=1;" parent="1" vertex="1">
          <mxGeometry x="890" y="920" width="140" height="70" as="geometry" />
        </mxCell>
        <mxCell id="bWWshmXrRq2cFkP4rkLB-33" value="UC6 - Iniciar horas complementares" style="ellipse;whiteSpace=wrap;html=1;" parent="1" vertex="1">
          <mxGeometry x="370" y="375" width="116.88" height="65" as="geometry" />
        </mxCell>
        <mxCell id="bWWshmXrRq2cFkP4rkLB-35" value="UC1 - Listar solicitações" style="ellipse;whiteSpace=wrap;html=1;" parent="1" vertex="1">
          <mxGeometry x="477.25" y="15" width="113.75" height="70" as="geometry" />
        </mxCell>
        <mxCell id="uQtxAWWseBeDYJraRtTC-1" value="UC7 - Alterar horas complementares" style="ellipse;whiteSpace=wrap;html=1;" parent="1" vertex="1">
          <mxGeometry x="322.21999999999997" y="500" width="112.56" height="80" as="geometry" />
        </mxCell>
        <mxCell id="uQtxAWWseBeDYJraRtTC-7" value="UC12 - Submeter horas complementares" style="ellipse;whiteSpace=wrap;html=1;" parent="1" vertex="1">
          <mxGeometry x="716" y="342.5" width="111" height="70" as="geometry" />
        </mxCell>
        <mxCell id="uQtxAWWseBeDYJraRtTC-9" value="UC15 - Listar coordenadores" style="ellipse;whiteSpace=wrap;html=1;" parent="1" vertex="1">
          <mxGeometry x="441.62" y="733.75" width="97.5" height="57.5" as="geometry" />
        </mxCell>
        <mxCell id="OMD0r5iE2W1QHZaav-Kl-3" value="" style="endArrow=none;html=1;rounded=0;entryX=0.5;entryY=0.5;entryDx=0;entryDy=0;entryPerimeter=0;" parent="1" source="bWWshmXrRq2cFkP4rkLB-35" target="bWWshmXrRq2cFkP4rkLB-11" edge="1">
          <mxGeometry width="50" height="50" relative="1" as="geometry">
            <mxPoint x="290" y="65" as="sourcePoint" />
            <mxPoint x="150" y="71" as="targetPoint" />
            <Array as="points" />
          </mxGeometry>
        </mxCell>
        <mxCell id="CCGscqTeK3ZTNfMnBpyx-1" value="UC3 - Avaliar atividade" style="ellipse;whiteSpace=wrap;html=1;" parent="1" vertex="1">
          <mxGeometry x="609.75" y="140" width="93.75" height="60" as="geometry" />
        </mxCell>
        <mxCell id="CCGscqTeK3ZTNfMnBpyx-2" value="UC4 -Finalizar avaliação da solicitação" style="ellipse;whiteSpace=wrap;html=1;" parent="1" vertex="1">
          <mxGeometry x="730" y="140" width="110" height="70" as="geometry" />
        </mxCell>
        <mxCell id="CCGscqTeK3ZTNfMnBpyx-3" value="UC5 - Remover avaliação da atividade" style="ellipse;whiteSpace=wrap;html=1;" parent="1" vertex="1">
          <mxGeometry x="827" y="100" width="113" height="60" as="geometry" />
        </mxCell>
        <mxCell id="-yoFwPvrBQscrRqspG_J-4" value="UC26 - Editar&amp;nbsp;&lt;div&gt;categoria&lt;/div&gt;" style="ellipse;whiteSpace=wrap;html=1;" parent="1" vertex="1">
          <mxGeometry x="425.87" y="1215" width="96.25" height="50" as="geometry" />
        </mxCell>
        <mxCell id="-yoFwPvrBQscrRqspG_J-5" value="UC25 - Cadastrar categorias" style="ellipse;whiteSpace=wrap;html=1;" parent="1" vertex="1">
          <mxGeometry x="336.63" y="1155" width="83.75" height="60" as="geometry" />
        </mxCell>
        <mxCell id="-yoFwPvrBQscrRqspG_J-6" value="&lt;div&gt;UC27 - Inativar catregoria&lt;/div&gt;" style="ellipse;whiteSpace=wrap;html=1;" parent="1" vertex="1">
          <mxGeometry x="539.12" y="1215" width="101" height="50" as="geometry" />
        </mxCell>
        <mxCell id="-yoFwPvrBQscrRqspG_J-17" value="UC29 - Editar&lt;div&gt;Atividades&lt;/div&gt;" style="ellipse;whiteSpace=wrap;html=1;" parent="1" vertex="1">
          <mxGeometry x="671" y="1210" width="86.25" height="55" as="geometry" />
        </mxCell>
        <mxCell id="-yoFwPvrBQscrRqspG_J-20" value="UC30 - Cadastrar&lt;div&gt;Atividades&lt;/div&gt;" style="ellipse;whiteSpace=wrap;html=1;" parent="1" vertex="1">
          <mxGeometry x="789.75" y="1230" width="80" height="65" as="geometry" />
        </mxCell>
        <mxCell id="-yoFwPvrBQscrRqspG_J-21" value="UC31 - Inativar&lt;br&gt;&lt;div&gt;Atividades&lt;/div&gt;" style="ellipse;whiteSpace=wrap;html=1;" parent="1" vertex="1">
          <mxGeometry x="910" y="1225" width="90" height="50" as="geometry" />
        </mxCell>
        <mxCell id="-yoFwPvrBQscrRqspG_J-40" value="UC33 - Editar&lt;div&gt;Avaliadores&lt;/div&gt;" style="ellipse;whiteSpace=wrap;html=1;" parent="1" vertex="1">
          <mxGeometry x="1020" y="1210" width="90" height="47.5" as="geometry" />
        </mxCell>
        <mxCell id="-yoFwPvrBQscrRqspG_J-41" value="UC34 - Cadastrar&lt;div&gt;Avaliadores&lt;/div&gt;" style="ellipse;whiteSpace=wrap;html=1;" parent="1" vertex="1">
          <mxGeometry x="1120" y="1260" width="90" height="60" as="geometry" />
        </mxCell>
        <mxCell id="-yoFwPvrBQscrRqspG_J-42" value="UC35 - Inativar&lt;br&gt;&lt;div&gt;Avaliadores&lt;/div&gt;" style="ellipse;whiteSpace=wrap;html=1;" parent="1" vertex="1">
          <mxGeometry x="1233.12" y="1200" width="100" height="50" as="geometry" />
        </mxCell>
        <mxCell id="-yoFwPvrBQscrRqspG_J-49" value="UC17 - Editar Coordenador" style="ellipse;whiteSpace=wrap;html=1;" parent="1" vertex="1">
          <mxGeometry x="650" y="860" width="97" height="50" as="geometry" />
        </mxCell>
        <mxCell id="-yoFwPvrBQscrRqspG_J-50" value="UC18 - Cadastrar Coordenador" style="ellipse;whiteSpace=wrap;html=1;" parent="1" vertex="1">
          <mxGeometry x="803" y="829.5" width="86.5" height="65.5" as="geometry" />
        </mxCell>
        <mxCell id="-yoFwPvrBQscrRqspG_J-51" value="UC 19 - Inativar&lt;div&gt;&lt;span style=&quot;background-color: transparent; color: light-dark(rgb(0, 0, 0), rgb(255, 255, 255));&quot;&gt;Coordenador&lt;/span&gt;&lt;/div&gt;" style="ellipse;whiteSpace=wrap;html=1;" parent="1" vertex="1">
          <mxGeometry x="799.75" y="740" width="93" height="45" as="geometry" />
        </mxCell>
        <mxCell id="-yoFwPvrBQscrRqspG_J-60" value="UC22&lt;span style=&quot;background-color: transparent; color: light-dark(rgb(0, 0, 0), rgb(255, 255, 255));&quot;&gt;&amp;nbsp;- Editar&amp;nbsp;&lt;/span&gt;&lt;div&gt;&lt;div&gt;Curso&lt;/div&gt;&lt;/div&gt;" style="ellipse;whiteSpace=wrap;html=1;" parent="1" vertex="1">
          <mxGeometry x="843.5" y="600" width="100.75" height="53" as="geometry" />
        </mxCell>
        <mxCell id="-yoFwPvrBQscrRqspG_J-61" value="UC21 - Cadastrar&lt;div&gt;Curso&lt;/div&gt;" style="ellipse;whiteSpace=wrap;html=1;" parent="1" vertex="1">
          <mxGeometry x="833" y="670" width="107" height="50" as="geometry" />
        </mxCell>
        <mxCell id="-yoFwPvrBQscrRqspG_J-62" value="UC23 - Inativar&lt;div&gt;&lt;div&gt;Curso&lt;/div&gt;&lt;/div&gt;" style="ellipse;whiteSpace=wrap;html=1;" parent="1" vertex="1">
          <mxGeometry x="779.75" y="540" width="100" height="50" as="geometry" />
        </mxCell>
        <mxCell id="-yoFwPvrBQscrRqspG_J-79" value="UC13 - Visualizar horas complementares" style="ellipse;whiteSpace=wrap;html=1;" parent="1" vertex="1">
          <mxGeometry x="559.5" y="263.13" width="116.75" height="73.75" as="geometry" />
        </mxCell>
        <mxCell id="gI51SIQM05FjkFTlWWCt-1" style="edgeStyle=orthogonalEdgeStyle;rounded=0;orthogonalLoop=1;jettySize=auto;html=1;exitX=0.5;exitY=1;exitDx=0;exitDy=0;" parent="1" edge="1">
          <mxGeometry relative="1" as="geometry">
            <mxPoint x="1462.12" y="1689.9999999999995" as="sourcePoint" />
            <mxPoint x="1462.12" y="1689.9999999999995" as="targetPoint" />
          </mxGeometry>
        </mxCell>
        <mxCell id="gI51SIQM05FjkFTlWWCt-9" value="UC14 - Consultar parecer da solicitação" style="ellipse;whiteSpace=wrap;html=1;" parent="1" vertex="1">
          <mxGeometry x="414" y="200" width="120" height="75" as="geometry" />
        </mxCell>
        <mxCell id="9pl-VTxWgK47KkGAngoo-16" value="Sistema Atividades Complementares" style="text;html=1;align=center;verticalAlign=middle;whiteSpace=wrap;rounded=0;" parent="1" vertex="1">
          <mxGeometry x="843.5" y="15" width="210" height="30" as="geometry" />
        </mxCell>
        <mxCell id="8u0rH5F0qFCnxMerEPqZ-1" value="Usuário" style="shape=umlActor;verticalLabelPosition=bottom;verticalAlign=top;html=1;outlineConnect=0;" parent="1" vertex="1">
          <mxGeometry x="50" y="1250" width="30" height="60" as="geometry" />
        </mxCell>
        <mxCell id="8u0rH5F0qFCnxMerEPqZ-4" value="UC8 - Cadastrar Atividades Realizaadas" style="ellipse;whiteSpace=wrap;html=1;" parent="1" vertex="1">
          <mxGeometry x="441.62" y="510" width="120" height="80" as="geometry" />
        </mxCell>
        <mxCell id="8u0rH5F0qFCnxMerEPqZ-11" value="UC36 - Listar Alunos" style="ellipse;whiteSpace=wrap;html=1;" parent="1" vertex="1">
          <mxGeometry x="1270" y="1032" width="110" height="58" as="geometry" />
        </mxCell>
        <mxCell id="8u0rH5F0qFCnxMerEPqZ-13" value="UC37 - Editar&lt;div&gt;Alunos&lt;/div&gt;" style="ellipse;whiteSpace=wrap;html=1;" parent="1" vertex="1">
          <mxGeometry x="1340" y="1130" width="105" height="50" as="geometry" />
        </mxCell>
        <mxCell id="8u0rH5F0qFCnxMerEPqZ-14" value="UC38 - Cadastrar&lt;div&gt;Alunos&lt;/div&gt;" style="ellipse;whiteSpace=wrap;html=1;" parent="1" vertex="1">
          <mxGeometry x="1480" y="1070" width="80" height="60" as="geometry" />
        </mxCell>
        <mxCell id="8u0rH5F0qFCnxMerEPqZ-15" value="UC39 - Inativar&lt;div&gt;Alunos&lt;/div&gt;" style="ellipse;whiteSpace=wrap;html=1;" parent="1" vertex="1">
          <mxGeometry x="1500" y="990" width="100" height="55" as="geometry" />
        </mxCell>
        <mxCell id="8u0rH5F0qFCnxMerEPqZ-26" value="&amp;nbsp;UC9&lt;div&gt;&amp;nbsp;- Editar Atividades Realizadas&lt;/div&gt;" style="ellipse;whiteSpace=wrap;html=1;" parent="1" vertex="1">
          <mxGeometry x="577.51" y="521.25" width="105.75" height="57.5" as="geometry" />
        </mxCell>
        <mxCell id="8u0rH5F0qFCnxMerEPqZ-27" value="UC11 - Visualizar Atividades realizadas" style="ellipse;whiteSpace=wrap;html=1;" parent="1" vertex="1">
          <mxGeometry x="730" y="412.5" width="140" height="67.5" as="geometry" />
        </mxCell>
        <mxCell id="8u0rH5F0qFCnxMerEPqZ-28" value="UC10 - Excluir Atividades Realizadas" style="ellipse;whiteSpace=wrap;html=1;" parent="1" vertex="1">
          <mxGeometry x="682.75" y="480" width="117" height="60" as="geometry" />
        </mxCell>
        <mxCell id="8u0rH5F0qFCnxMerEPqZ-39" value="Fazer Login" style="ellipse;whiteSpace=wrap;html=1;" parent="1" vertex="1">
          <mxGeometry x="810" y="1475" width="140" height="70" as="geometry" />
        </mxCell>
        <mxCell id="8u0rH5F0qFCnxMerEPqZ-43" style="edgeStyle=orthogonalEdgeStyle;rounded=0;orthogonalLoop=1;jettySize=auto;html=1;exitX=0.5;exitY=0;exitDx=0;exitDy=0;" parent="1" source="8u0rH5F0qFCnxMerEPqZ-40" target="8u0rH5F0qFCnxMerEPqZ-1" edge="1">
          <mxGeometry relative="1" as="geometry" />
        </mxCell>
        <mxCell id="8u0rH5F0qFCnxMerEPqZ-40" value="Autenticar senha" style="ellipse;whiteSpace=wrap;html=1;" parent="1" vertex="1">
          <mxGeometry x="1029.12" y="1485" width="140" height="70" as="geometry" />
        </mxCell>
        <mxCell id="8u0rH5F0qFCnxMerEPqZ-44" style="edgeStyle=orthogonalEdgeStyle;rounded=0;orthogonalLoop=1;jettySize=auto;html=1;exitX=0.5;exitY=0;exitDx=0;exitDy=0;entryX=0.5;entryY=1;entryDx=0;entryDy=0;" parent="1" source="8u0rH5F0qFCnxMerEPqZ-41" target="8u0rH5F0qFCnxMerEPqZ-40" edge="1">
          <mxGeometry relative="1" as="geometry" />
        </mxCell>
        <mxCell id="8u0rH5F0qFCnxMerEPqZ-45" value="Include" style="edgeLabel;html=1;align=center;verticalAlign=middle;resizable=0;points=[];" parent="8u0rH5F0qFCnxMerEPqZ-44" vertex="1" connectable="0">
          <mxGeometry x="-0.2491" y="-1" relative="1" as="geometry">
            <mxPoint as="offset" />
          </mxGeometry>
        </mxCell>
        <mxCell id="8u0rH5F0qFCnxMerEPqZ-41" value="Trocar a senha no primeiro acesso (Aluno)" style="ellipse;whiteSpace=wrap;html=1;" parent="1" vertex="1">
          <mxGeometry x="1030" y="1595" width="140" height="70" as="geometry" />
        </mxCell>
        <mxCell id="8u0rH5F0qFCnxMerEPqZ-42" style="edgeStyle=orthogonalEdgeStyle;rounded=0;orthogonalLoop=1;jettySize=auto;html=1;exitX=0.5;exitY=0;exitDx=0;exitDy=0;entryX=0.5;entryY=0.5;entryDx=0;entryDy=0;entryPerimeter=0;" parent="1" source="8u0rH5F0qFCnxMerEPqZ-39" target="8u0rH5F0qFCnxMerEPqZ-1" edge="1">
          <mxGeometry relative="1" as="geometry">
            <Array as="points">
              <mxPoint x="410" y="1475" />
              <mxPoint x="410" y="1340" />
              <mxPoint x="247" y="1340" />
              <mxPoint x="247" y="1280" />
            </Array>
          </mxGeometry>
        </mxCell>
        <mxCell id="8u0rH5F0qFCnxMerEPqZ-46" value="Permitir acesso as funcionalidades conforme perfil" style="ellipse;whiteSpace=wrap;html=1;" parent="1" vertex="1">
          <mxGeometry x="1256.37" y="1470" width="163" height="80" as="geometry" />
        </mxCell>
        <mxCell id="8u0rH5F0qFCnxMerEPqZ-47" style="edgeStyle=orthogonalEdgeStyle;rounded=0;orthogonalLoop=1;jettySize=auto;html=1;exitX=0.5;exitY=0;exitDx=0;exitDy=0;entryX=0.5;entryY=0.5;entryDx=0;entryDy=0;entryPerimeter=0;" parent="1" edge="1">
          <mxGeometry relative="1" as="geometry">
            <Array as="points">
              <mxPoint x="873" y="1470" />
              <mxPoint x="873" y="1360" />
              <mxPoint x="710" y="1360" />
              <mxPoint x="710" y="1280" />
            </Array>
            <mxPoint x="1343.1200000000003" y="1470" as="sourcePoint" />
            <mxPoint x="70.25" y="1280" as="targetPoint" />
          </mxGeometry>
        </mxCell>
        <mxCell id="2doU3As-oRjPvJJeiD76-1" value="UC2 - Visualizar solicitação&lt;div&gt;&lt;br&gt;&lt;/div&gt;" style="ellipse;whiteSpace=wrap;html=1;" vertex="1" parent="1">
          <mxGeometry x="671" y="15" width="113.75" height="70" as="geometry" />
        </mxCell>
        <mxCell id="2doU3As-oRjPvJJeiD76-4" value="e&lt;span style=&quot;background-color: light-dark(#ffffff, var(--ge-dark-color, #121212)); color: light-dark(rgb(0, 0, 0), rgb(255, 255, 255));&quot;&gt;xtends&lt;/span&gt;" style="html=1;verticalAlign=bottom;endArrow=open;dashed=1;endSize=8;curved=0;rounded=0;entryX=1;entryY=0.5;entryDx=0;entryDy=0;" edge="1" parent="1" source="CCGscqTeK3ZTNfMnBpyx-3" target="2doU3As-oRjPvJJeiD76-1">
          <mxGeometry relative="1" as="geometry">
            <mxPoint x="870" y="600" as="sourcePoint" />
            <mxPoint x="790" y="600" as="targetPoint" />
            <Array as="points">
              <mxPoint x="830" y="90" />
            </Array>
          </mxGeometry>
        </mxCell>
        <mxCell id="2doU3As-oRjPvJJeiD76-5" value="extends" style="html=1;verticalAlign=bottom;endArrow=open;dashed=1;endSize=8;curved=0;rounded=0;exitX=0.5;exitY=0;exitDx=0;exitDy=0;" edge="1" parent="1" source="CCGscqTeK3ZTNfMnBpyx-2" target="2doU3As-oRjPvJJeiD76-1">
          <mxGeometry relative="1" as="geometry">
            <mxPoint x="870" y="600" as="sourcePoint" />
            <mxPoint x="790" y="600" as="targetPoint" />
          </mxGeometry>
        </mxCell>
        <mxCell id="2doU3As-oRjPvJJeiD76-6" value="extends" style="html=1;verticalAlign=bottom;endArrow=open;dashed=1;endSize=8;curved=0;rounded=0;exitX=0.5;exitY=0;exitDx=0;exitDy=0;" edge="1" parent="1" source="CCGscqTeK3ZTNfMnBpyx-1" target="2doU3As-oRjPvJJeiD76-1">
          <mxGeometry x="-0.0056" relative="1" as="geometry">
            <mxPoint x="870" y="600" as="sourcePoint" />
            <mxPoint x="790" y="600" as="targetPoint" />
            <mxPoint as="offset" />
          </mxGeometry>
        </mxCell>
        <mxCell id="2doU3As-oRjPvJJeiD76-7" value="extends" style="html=1;verticalAlign=bottom;endArrow=open;dashed=1;endSize=8;curved=0;rounded=0;exitX=0;exitY=0.5;exitDx=0;exitDy=0;entryX=1;entryY=0.5;entryDx=0;entryDy=0;" edge="1" parent="1" source="2doU3As-oRjPvJJeiD76-1" target="bWWshmXrRq2cFkP4rkLB-35">
          <mxGeometry relative="1" as="geometry">
            <mxPoint x="870" y="600" as="sourcePoint" />
            <mxPoint x="790" y="600" as="targetPoint" />
          </mxGeometry>
        </mxCell>
        <mxCell id="2doU3As-oRjPvJJeiD76-9" value="" style="endArrow=none;html=1;rounded=0;exitX=0.5;exitY=0.5;exitDx=0;exitDy=0;exitPerimeter=0;entryX=0.5;entryY=0;entryDx=0;entryDy=0;" edge="1" parent="1" source="bWWshmXrRq2cFkP4rkLB-3" target="bWWshmXrRq2cFkP4rkLB-33">
          <mxGeometry width="50" height="50" relative="1" as="geometry">
            <mxPoint x="800" y="630" as="sourcePoint" />
            <mxPoint x="850" y="580" as="targetPoint" />
          </mxGeometry>
        </mxCell>
        <mxCell id="2doU3As-oRjPvJJeiD76-10" value="extends" style="html=1;verticalAlign=bottom;endArrow=open;dashed=1;endSize=8;curved=0;rounded=0;exitX=0.5;exitY=0;exitDx=0;exitDy=0;entryX=0;entryY=1;entryDx=0;entryDy=0;" edge="1" parent="1" source="uQtxAWWseBeDYJraRtTC-1" target="bWWshmXrRq2cFkP4rkLB-33">
          <mxGeometry relative="1" as="geometry">
            <mxPoint x="870" y="600" as="sourcePoint" />
            <mxPoint x="790" y="600" as="targetPoint" />
          </mxGeometry>
        </mxCell>
        <mxCell id="2doU3As-oRjPvJJeiD76-11" value="extends" style="html=1;verticalAlign=bottom;endArrow=open;dashed=1;endSize=8;curved=0;rounded=0;entryX=0.5;entryY=1;entryDx=0;entryDy=0;exitX=0;exitY=0;exitDx=0;exitDy=0;" edge="1" parent="1" source="8u0rH5F0qFCnxMerEPqZ-4" target="bWWshmXrRq2cFkP4rkLB-33">
          <mxGeometry relative="1" as="geometry">
            <mxPoint x="870" y="600" as="sourcePoint" />
            <mxPoint x="790" y="600" as="targetPoint" />
          </mxGeometry>
        </mxCell>
        <mxCell id="2doU3As-oRjPvJJeiD76-14" value="extends" style="html=1;verticalAlign=bottom;endArrow=open;dashed=1;endSize=8;curved=0;rounded=0;entryX=1;entryY=1;entryDx=0;entryDy=0;" edge="1" parent="1" source="8u0rH5F0qFCnxMerEPqZ-26" target="bWWshmXrRq2cFkP4rkLB-33">
          <mxGeometry relative="1" as="geometry">
            <mxPoint x="870" y="670" as="sourcePoint" />
            <mxPoint x="790" y="670" as="targetPoint" />
          </mxGeometry>
        </mxCell>
        <mxCell id="2doU3As-oRjPvJJeiD76-15" value="extends" style="html=1;verticalAlign=bottom;endArrow=open;dashed=1;endSize=8;curved=0;rounded=0;exitX=0;exitY=0.5;exitDx=0;exitDy=0;entryX=0.972;entryY=0.694;entryDx=0;entryDy=0;entryPerimeter=0;" edge="1" parent="1" source="8u0rH5F0qFCnxMerEPqZ-28" target="bWWshmXrRq2cFkP4rkLB-33">
          <mxGeometry x="0.0038" relative="1" as="geometry">
            <mxPoint x="870" y="670" as="sourcePoint" />
            <mxPoint x="530" y="370" as="targetPoint" />
            <mxPoint as="offset" />
          </mxGeometry>
        </mxCell>
        <mxCell id="2doU3As-oRjPvJJeiD76-16" value="extends" style="html=1;verticalAlign=bottom;endArrow=open;dashed=1;endSize=8;curved=0;rounded=0;exitX=0;exitY=0.5;exitDx=0;exitDy=0;entryX=1;entryY=0.5;entryDx=0;entryDy=0;" edge="1" parent="1" source="8u0rH5F0qFCnxMerEPqZ-27" target="bWWshmXrRq2cFkP4rkLB-33">
          <mxGeometry relative="1" as="geometry">
            <mxPoint x="870" y="670" as="sourcePoint" />
            <mxPoint x="790" y="670" as="targetPoint" />
          </mxGeometry>
        </mxCell>
        <mxCell id="2doU3As-oRjPvJJeiD76-18" value="extends" style="html=1;verticalAlign=bottom;endArrow=open;dashed=1;endSize=8;curved=0;rounded=0;exitX=0;exitY=0.5;exitDx=0;exitDy=0;entryX=1;entryY=0;entryDx=0;entryDy=0;" edge="1" parent="1" source="uQtxAWWseBeDYJraRtTC-7" target="bWWshmXrRq2cFkP4rkLB-33">
          <mxGeometry relative="1" as="geometry">
            <mxPoint x="870" y="670" as="sourcePoint" />
            <mxPoint x="790" y="670" as="targetPoint" />
          </mxGeometry>
        </mxCell>
        <mxCell id="2doU3As-oRjPvJJeiD76-19" value="" style="endArrow=none;html=1;rounded=0;exitX=0.5;exitY=0.5;exitDx=0;exitDy=0;exitPerimeter=0;entryX=0;entryY=0.5;entryDx=0;entryDy=0;" edge="1" parent="1" source="bWWshmXrRq2cFkP4rkLB-3" target="gI51SIQM05FjkFTlWWCt-9">
          <mxGeometry width="50" height="50" relative="1" as="geometry">
            <mxPoint x="800" y="690" as="sourcePoint" />
            <mxPoint x="850" y="640" as="targetPoint" />
          </mxGeometry>
        </mxCell>
        <mxCell id="2doU3As-oRjPvJJeiD76-20" value="" style="endArrow=none;html=1;rounded=0;exitX=0.5;exitY=0.5;exitDx=0;exitDy=0;exitPerimeter=0;entryX=0;entryY=0.5;entryDx=0;entryDy=0;" edge="1" parent="1" source="bWWshmXrRq2cFkP4rkLB-3" target="-yoFwPvrBQscrRqspG_J-79">
          <mxGeometry width="50" height="50" relative="1" as="geometry">
            <mxPoint x="800" y="690" as="sourcePoint" />
            <mxPoint x="850" y="640" as="targetPoint" />
          </mxGeometry>
        </mxCell>
        <mxCell id="2doU3As-oRjPvJJeiD76-27" value="" style="endArrow=none;html=1;rounded=0;entryX=0;entryY=0.5;entryDx=0;entryDy=0;exitX=0.5;exitY=0.5;exitDx=0;exitDy=0;exitPerimeter=0;" edge="1" parent="1" source="bWWshmXrRq2cFkP4rkLB-7" target="uQtxAWWseBeDYJraRtTC-9">
          <mxGeometry width="50" height="50" relative="1" as="geometry">
            <mxPoint x="800" y="810" as="sourcePoint" />
            <mxPoint x="850" y="760" as="targetPoint" />
          </mxGeometry>
        </mxCell>
        <mxCell id="2doU3As-oRjPvJJeiD76-28" value="extends" style="html=1;verticalAlign=bottom;endArrow=open;dashed=1;endSize=8;curved=0;rounded=0;entryX=1;entryY=0.5;entryDx=0;entryDy=0;exitX=0;exitY=0;exitDx=0;exitDy=0;" edge="1" parent="1" source="bWWshmXrRq2cFkP4rkLB-19" target="uQtxAWWseBeDYJraRtTC-9">
          <mxGeometry relative="1" as="geometry">
            <mxPoint x="870" y="780" as="sourcePoint" />
            <mxPoint x="790" y="780" as="targetPoint" />
          </mxGeometry>
        </mxCell>
        <mxCell id="2doU3As-oRjPvJJeiD76-29" value="extends" style="html=1;verticalAlign=bottom;endArrow=open;dashed=1;endSize=8;curved=0;rounded=0;entryX=1;entryY=0.5;entryDx=0;entryDy=0;exitX=0.026;exitY=0.735;exitDx=0;exitDy=0;exitPerimeter=0;" edge="1" parent="1" source="-yoFwPvrBQscrRqspG_J-51" target="bWWshmXrRq2cFkP4rkLB-19">
          <mxGeometry relative="1" as="geometry">
            <mxPoint x="870" y="780" as="sourcePoint" />
            <mxPoint x="790" y="780" as="targetPoint" />
          </mxGeometry>
        </mxCell>
        <mxCell id="2doU3As-oRjPvJJeiD76-30" value="extends" style="html=1;verticalAlign=bottom;endArrow=open;dashed=1;endSize=8;curved=0;rounded=0;entryX=1;entryY=1;entryDx=0;entryDy=0;exitX=0;exitY=0;exitDx=0;exitDy=0;" edge="1" parent="1" source="-yoFwPvrBQscrRqspG_J-50" target="bWWshmXrRq2cFkP4rkLB-19">
          <mxGeometry x="-0.0107" relative="1" as="geometry">
            <mxPoint x="870" y="780" as="sourcePoint" />
            <mxPoint x="790" y="780" as="targetPoint" />
            <mxPoint as="offset" />
          </mxGeometry>
        </mxCell>
        <mxCell id="2doU3As-oRjPvJJeiD76-31" value="extends" style="html=1;verticalAlign=bottom;endArrow=open;dashed=1;endSize=8;curved=0;rounded=0;entryX=0.5;entryY=1;entryDx=0;entryDy=0;exitX=0.5;exitY=0;exitDx=0;exitDy=0;" edge="1" parent="1" source="-yoFwPvrBQscrRqspG_J-49" target="bWWshmXrRq2cFkP4rkLB-19">
          <mxGeometry relative="1" as="geometry">
            <mxPoint x="870" y="780" as="sourcePoint" />
            <mxPoint x="790" y="780" as="targetPoint" />
          </mxGeometry>
        </mxCell>
        <mxCell id="2doU3As-oRjPvJJeiD76-32" value="" style="endArrow=none;html=1;rounded=0;exitX=0.5;exitY=0.5;exitDx=0;exitDy=0;exitPerimeter=0;entryX=0;entryY=0.5;entryDx=0;entryDy=0;" edge="1" parent="1" source="bWWshmXrRq2cFkP4rkLB-7" target="bWWshmXrRq2cFkP4rkLB-18">
          <mxGeometry width="50" height="50" relative="1" as="geometry">
            <mxPoint x="800" y="810" as="sourcePoint" />
            <mxPoint x="850" y="760" as="targetPoint" />
          </mxGeometry>
        </mxCell>
        <mxCell id="2doU3As-oRjPvJJeiD76-33" value="extends" style="html=1;verticalAlign=bottom;endArrow=open;dashed=1;endSize=8;curved=0;rounded=0;entryX=1;entryY=1;entryDx=0;entryDy=0;exitX=0;exitY=0.5;exitDx=0;exitDy=0;" edge="1" parent="1" source="-yoFwPvrBQscrRqspG_J-61" target="bWWshmXrRq2cFkP4rkLB-18">
          <mxGeometry relative="1" as="geometry">
            <mxPoint x="870" y="780" as="sourcePoint" />
            <mxPoint x="790" y="780" as="targetPoint" />
          </mxGeometry>
        </mxCell>
        <mxCell id="2doU3As-oRjPvJJeiD76-34" value="extends" style="html=1;verticalAlign=bottom;endArrow=open;dashed=1;endSize=8;curved=0;rounded=0;entryX=1;entryY=0.5;entryDx=0;entryDy=0;exitX=0;exitY=0.5;exitDx=0;exitDy=0;" edge="1" parent="1" source="-yoFwPvrBQscrRqspG_J-60" target="bWWshmXrRq2cFkP4rkLB-18">
          <mxGeometry relative="1" as="geometry">
            <mxPoint x="870" y="780" as="sourcePoint" />
            <mxPoint x="790" y="780" as="targetPoint" />
          </mxGeometry>
        </mxCell>
        <mxCell id="2doU3As-oRjPvJJeiD76-35" value="extends" style="html=1;verticalAlign=bottom;endArrow=open;dashed=1;endSize=8;curved=0;rounded=0;entryX=1;entryY=0;entryDx=0;entryDy=0;exitX=0;exitY=1;exitDx=0;exitDy=0;" edge="1" parent="1" source="-yoFwPvrBQscrRqspG_J-62" target="bWWshmXrRq2cFkP4rkLB-18">
          <mxGeometry x="0.005" relative="1" as="geometry">
            <mxPoint x="870" y="780" as="sourcePoint" />
            <mxPoint x="790" y="780" as="targetPoint" />
            <mxPoint as="offset" />
          </mxGeometry>
        </mxCell>
        <mxCell id="bWWshmXrRq2cFkP4rkLB-23" value="UC28 - Listar&lt;div&gt;&amp;nbsp;atividades&lt;/div&gt;" style="ellipse;whiteSpace=wrap;html=1;" parent="1" vertex="1">
          <mxGeometry x="769.75" y="1109" width="90" height="60" as="geometry" />
        </mxCell>
        <mxCell id="2doU3As-oRjPvJJeiD76-40" value="" style="endArrow=none;html=1;rounded=0;exitX=0.5;exitY=0.5;exitDx=0;exitDy=0;exitPerimeter=0;entryX=0.5;entryY=0;entryDx=0;entryDy=0;" edge="1" parent="1" source="bWWshmXrRq2cFkP4rkLB-8" target="bWWshmXrRq2cFkP4rkLB-22">
          <mxGeometry width="50" height="50" relative="1" as="geometry">
            <mxPoint x="800" y="1040" as="sourcePoint" />
            <mxPoint x="850" y="990" as="targetPoint" />
          </mxGeometry>
        </mxCell>
        <mxCell id="2doU3As-oRjPvJJeiD76-41" value="extends" style="html=1;verticalAlign=bottom;endArrow=open;dashed=1;endSize=8;curved=0;rounded=0;exitX=0.5;exitY=0;exitDx=0;exitDy=0;entryX=0.5;entryY=1;entryDx=0;entryDy=0;" edge="1" parent="1" source="-yoFwPvrBQscrRqspG_J-4" target="bWWshmXrRq2cFkP4rkLB-22">
          <mxGeometry x="0.0182" relative="1" as="geometry">
            <mxPoint x="870" y="1020" as="sourcePoint" />
            <mxPoint x="780" y="1030" as="targetPoint" />
            <mxPoint as="offset" />
          </mxGeometry>
        </mxCell>
        <mxCell id="2doU3As-oRjPvJJeiD76-42" value="extends" style="html=1;verticalAlign=bottom;endArrow=open;dashed=1;endSize=8;curved=0;rounded=0;exitX=1;exitY=0;exitDx=0;exitDy=0;entryX=0;entryY=0.5;entryDx=0;entryDy=0;" edge="1" parent="1" source="-yoFwPvrBQscrRqspG_J-5" target="bWWshmXrRq2cFkP4rkLB-22">
          <mxGeometry relative="1" as="geometry">
            <mxPoint x="870" y="1020" as="sourcePoint" />
            <mxPoint x="790" y="1020" as="targetPoint" />
          </mxGeometry>
        </mxCell>
        <mxCell id="2doU3As-oRjPvJJeiD76-43" value="extends" style="html=1;verticalAlign=bottom;endArrow=open;dashed=1;endSize=8;curved=0;rounded=0;exitX=0.5;exitY=0;exitDx=0;exitDy=0;entryX=1;entryY=1;entryDx=0;entryDy=0;" edge="1" parent="1" source="-yoFwPvrBQscrRqspG_J-6" target="bWWshmXrRq2cFkP4rkLB-22">
          <mxGeometry relative="1" as="geometry">
            <mxPoint x="870" y="1020" as="sourcePoint" />
            <mxPoint x="790" y="1020" as="targetPoint" />
          </mxGeometry>
        </mxCell>
        <mxCell id="2doU3As-oRjPvJJeiD76-44" value="" style="endArrow=none;html=1;rounded=0;exitX=0.5;exitY=0.5;exitDx=0;exitDy=0;exitPerimeter=0;entryX=0.5;entryY=0;entryDx=0;entryDy=0;" edge="1" parent="1" source="bWWshmXrRq2cFkP4rkLB-8" target="bWWshmXrRq2cFkP4rkLB-23">
          <mxGeometry width="50" height="50" relative="1" as="geometry">
            <mxPoint x="800" y="1040" as="sourcePoint" />
            <mxPoint x="850" y="990" as="targetPoint" />
          </mxGeometry>
        </mxCell>
        <mxCell id="2doU3As-oRjPvJJeiD76-45" value="extends" style="html=1;verticalAlign=bottom;endArrow=open;dashed=1;endSize=8;curved=0;rounded=0;exitX=0.5;exitY=0;exitDx=0;exitDy=0;entryX=0;entryY=0.5;entryDx=0;entryDy=0;" edge="1" parent="1" source="-yoFwPvrBQscrRqspG_J-17" target="bWWshmXrRq2cFkP4rkLB-23">
          <mxGeometry relative="1" as="geometry">
            <mxPoint x="870" y="1020" as="sourcePoint" />
            <mxPoint x="790" y="1020" as="targetPoint" />
          </mxGeometry>
        </mxCell>
        <mxCell id="2doU3As-oRjPvJJeiD76-46" value="extends" style="html=1;verticalAlign=bottom;endArrow=open;dashed=1;endSize=8;curved=0;rounded=0;exitX=0.5;exitY=0;exitDx=0;exitDy=0;" edge="1" parent="1" source="-yoFwPvrBQscrRqspG_J-20">
          <mxGeometry relative="1" as="geometry">
            <mxPoint x="870" y="1020" as="sourcePoint" />
            <mxPoint x="820" y="1170" as="targetPoint" />
          </mxGeometry>
        </mxCell>
        <mxCell id="2doU3As-oRjPvJJeiD76-47" value="return" style="html=1;verticalAlign=bottom;endArrow=open;dashed=1;endSize=8;curved=0;rounded=0;exitX=0.5;exitY=0;exitDx=0;exitDy=0;entryX=1;entryY=0.5;entryDx=0;entryDy=0;" edge="1" parent="1" source="-yoFwPvrBQscrRqspG_J-21" target="bWWshmXrRq2cFkP4rkLB-23">
          <mxGeometry relative="1" as="geometry">
            <mxPoint x="870" y="1020" as="sourcePoint" />
            <mxPoint x="790" y="1020" as="targetPoint" />
          </mxGeometry>
        </mxCell>
        <mxCell id="2doU3As-oRjPvJJeiD76-48" value="" style="endArrow=none;html=1;rounded=0;exitX=0.5;exitY=0.5;exitDx=0;exitDy=0;exitPerimeter=0;entryX=0.5;entryY=0;entryDx=0;entryDy=0;" edge="1" parent="1" source="bWWshmXrRq2cFkP4rkLB-8" target="bWWshmXrRq2cFkP4rkLB-29">
          <mxGeometry width="50" height="50" relative="1" as="geometry">
            <mxPoint x="800" y="1160" as="sourcePoint" />
            <mxPoint x="850" y="1110" as="targetPoint" />
          </mxGeometry>
        </mxCell>
        <mxCell id="2doU3As-oRjPvJJeiD76-50" value="extends" style="html=1;verticalAlign=bottom;endArrow=open;dashed=1;endSize=8;curved=0;rounded=0;exitX=0.5;exitY=0;exitDx=0;exitDy=0;entryX=0;entryY=0.5;entryDx=0;entryDy=0;" edge="1" parent="1" source="-yoFwPvrBQscrRqspG_J-40" target="bWWshmXrRq2cFkP4rkLB-29">
          <mxGeometry x="0.0039" relative="1" as="geometry">
            <mxPoint x="870" y="1140" as="sourcePoint" />
            <mxPoint x="790" y="1140" as="targetPoint" />
            <mxPoint as="offset" />
          </mxGeometry>
        </mxCell>
        <mxCell id="2doU3As-oRjPvJJeiD76-51" value="extends" style="html=1;verticalAlign=bottom;endArrow=open;dashed=1;endSize=8;curved=0;rounded=0;exitX=0.5;exitY=0;exitDx=0;exitDy=0;entryX=0.5;entryY=1;entryDx=0;entryDy=0;" edge="1" parent="1" source="-yoFwPvrBQscrRqspG_J-41" target="bWWshmXrRq2cFkP4rkLB-29">
          <mxGeometry relative="1" as="geometry">
            <mxPoint x="870" y="1140" as="sourcePoint" />
            <mxPoint x="790" y="1140" as="targetPoint" />
          </mxGeometry>
        </mxCell>
        <mxCell id="2doU3As-oRjPvJJeiD76-52" value="extends" style="html=1;verticalAlign=bottom;endArrow=open;dashed=1;endSize=8;curved=0;rounded=0;exitX=0.5;exitY=0;exitDx=0;exitDy=0;entryX=1;entryY=0.5;entryDx=0;entryDy=0;" edge="1" parent="1" source="-yoFwPvrBQscrRqspG_J-42" target="bWWshmXrRq2cFkP4rkLB-29">
          <mxGeometry x="-0.0055" relative="1" as="geometry">
            <mxPoint x="870" y="1140" as="sourcePoint" />
            <mxPoint x="790" y="1140" as="targetPoint" />
            <mxPoint as="offset" />
          </mxGeometry>
        </mxCell>
        <mxCell id="2doU3As-oRjPvJJeiD76-53" value="" style="endArrow=none;html=1;rounded=0;exitX=0.5;exitY=0.5;exitDx=0;exitDy=0;exitPerimeter=0;entryX=0;entryY=0.5;entryDx=0;entryDy=0;" edge="1" parent="1" source="bWWshmXrRq2cFkP4rkLB-8" target="bWWshmXrRq2cFkP4rkLB-31">
          <mxGeometry width="50" height="50" relative="1" as="geometry">
            <mxPoint x="800" y="1160" as="sourcePoint" />
            <mxPoint x="850" y="1110" as="targetPoint" />
          </mxGeometry>
        </mxCell>
        <mxCell id="2doU3As-oRjPvJJeiD76-55" value="" style="endArrow=none;html=1;rounded=0;exitX=0.5;exitY=0.5;exitDx=0;exitDy=0;exitPerimeter=0;entryX=0;entryY=0;entryDx=0;entryDy=0;" edge="1" parent="1" source="bWWshmXrRq2cFkP4rkLB-8" target="8u0rH5F0qFCnxMerEPqZ-11">
          <mxGeometry width="50" height="50" relative="1" as="geometry">
            <mxPoint x="800" y="1160" as="sourcePoint" />
            <mxPoint x="850" y="1110" as="targetPoint" />
          </mxGeometry>
        </mxCell>
        <mxCell id="2doU3As-oRjPvJJeiD76-56" value="extends" style="html=1;verticalAlign=bottom;endArrow=open;dashed=1;endSize=8;curved=0;rounded=0;entryX=0.5;entryY=1;entryDx=0;entryDy=0;" edge="1" parent="1" source="8u0rH5F0qFCnxMerEPqZ-13" target="8u0rH5F0qFCnxMerEPqZ-11">
          <mxGeometry relative="1" as="geometry">
            <mxPoint x="870" y="1140" as="sourcePoint" />
            <mxPoint x="790" y="1140" as="targetPoint" />
          </mxGeometry>
        </mxCell>
        <mxCell id="2doU3As-oRjPvJJeiD76-57" value="extends" style="html=1;verticalAlign=bottom;endArrow=open;dashed=1;endSize=8;curved=0;rounded=0;exitX=0;exitY=0.5;exitDx=0;exitDy=0;entryX=1;entryY=1;entryDx=0;entryDy=0;" edge="1" parent="1" source="8u0rH5F0qFCnxMerEPqZ-14" target="8u0rH5F0qFCnxMerEPqZ-11">
          <mxGeometry relative="1" as="geometry">
            <mxPoint x="870" y="1140" as="sourcePoint" />
            <mxPoint x="790" y="1140" as="targetPoint" />
          </mxGeometry>
        </mxCell>
        <mxCell id="2doU3As-oRjPvJJeiD76-58" value="extends" style="html=1;verticalAlign=bottom;endArrow=open;dashed=1;endSize=8;curved=0;rounded=0;exitX=0;exitY=0.5;exitDx=0;exitDy=0;entryX=1;entryY=0;entryDx=0;entryDy=0;" edge="1" parent="1" source="8u0rH5F0qFCnxMerEPqZ-15" target="8u0rH5F0qFCnxMerEPqZ-11">
          <mxGeometry relative="1" as="geometry">
            <mxPoint x="870" y="1140" as="sourcePoint" />
            <mxPoint x="790" y="1140" as="targetPoint" />
          </mxGeometry>
        </mxCell>
      </root>
    </mxGraphModel>
  </diagram>
</mxfile>
